<svg width="49" height="48" viewBox="0 0 49 48" fill="none" xmlns="http://www.w3.org/2000/svg">
<rect x="0.132996" y="14.582" width="35" height="35" transform="rotate(-21.039 0.132996 14.582)" fill="#FFD500"/>
<path d="M27.717 33.98C26.3835 35.3155 25.634 37.1254 25.633 39.0127V41.2749" stroke="#323232" stroke-width="2" stroke-linecap="round" stroke-linejoin="round"/>
<path d="M23.549 33.98C24.8826 35.3155 25.632 37.1254 25.633 39.0127V41.2749" stroke="#323232" stroke-width="2" stroke-linecap="round" stroke-linejoin="round"/>
<path d="M35.4809 22.7254C29.1537 25.2257 22.1123 25.2257 15.7852 22.7254" stroke="#323232" stroke-width="2" stroke-linecap="round" stroke-linejoin="round"/>
<path d="M38.7635 15.9521H44.3908" stroke="#323232" stroke-width="2" stroke-linecap="round" stroke-linejoin="round"/>
<path d="M41.5771 18.7655L38.7635 15.9519L41.5771 13.1382" stroke="#323232" stroke-width="2" stroke-linecap="round" stroke-linejoin="round"/>
<path d="M12.5025 15.9521H6.87518" stroke="#323232" stroke-width="2" stroke-linecap="round" stroke-linejoin="round"/>
<path d="M9.68886 13.1382L12.5025 15.9519L9.68886 18.7655" stroke="#323232" stroke-width="2" stroke-linecap="round" stroke-linejoin="round"/>
<path d="M36.0548 3.75928L34.9294 6.86932C32.99 12.2023 33.3291 18.0982 35.8673 23.1736V23.1736C38.6277 28.6963 38.7743 35.1639 36.2668 40.806L36.0605 41.273" stroke="#323232" stroke-width="2" stroke-linecap="round" stroke-linejoin="round"/>
<path d="M15.2112 3.75928L16.3366 6.86932C18.276 12.2023 17.9369 18.0982 15.3987 23.1736V23.1736C12.6383 28.6963 12.4917 35.1639 14.9992 40.806L15.2055 41.273" stroke="#323232" stroke-width="2" stroke-linecap="round" stroke-linejoin="round"/>
<path d="M17.2126 10.0111H34.0534" stroke="#323232" stroke-width="2" stroke-linecap="round" stroke-linejoin="round"/>
</svg>
