<svg width="32" height="32" viewBox="0 0 32 32" fill="none" xmlns="http://www.w3.org/2000/svg">
<path d="M14.6667 24L18.42 3.75737C18.556 3.02671 19.2627 2.54671 19.992 2.69337L25.3333 3.76137" stroke="#DF213C" stroke-width="1.5" stroke-linecap="round" stroke-linejoin="round"/>
<path d="M23.7467 16.8534C21.6067 18.9081 18.1387 18.9081 16 16.8548C13.8613 14.8014 10.3933 14.8014 8.25333 16.8561" stroke="#DF213C" stroke-width="1.5" stroke-linecap="round" stroke-linejoin="round"/>
<path fill-rule="evenodd" clip-rule="evenodd" d="M8.24533 16.7947C8.08133 15.1147 8 13.428 8 11.74V11.4907C8 10.9493 8.12667 10.4147 8.368 9.92933V9.92933C8.96 8.74667 10.168 8 11.4907 8H20.5093C21.832 8 23.04 8.74667 23.632 9.92933V9.92933C23.8733 10.4147 24 10.9493 24 11.4907V11.74C24 13.428 23.9187 15.1133 23.7547 16.7933L22.9 25.5907C22.768 26.9573 21.62 28 20.2467 28H11.7533C10.38 28 9.232 26.9573 9.09867 25.5907L8.24533 16.7947V16.7947Z" stroke="#DF213C" stroke-width="1.5" stroke-linecap="round" stroke-linejoin="round"/>
</svg>
