<svg width="81" height="80" viewBox="0 0 81 80" fill="none" xmlns="http://www.w3.org/2000/svg">
<path d="M31.359 9.14119L71.4773 46.9627L18.6637 62.7955L31.359 9.14119Z" fill="#A2C617"/>
<path d="M48.1655 49.7085V54.0941C48.1653 55.0529 48.7071 55.9295 49.5648 56.3581L50.544 56.8477C51.9693 57.56 53.6468 57.56 55.0721 56.8477L56.0513 56.3581C56.909 55.9295 57.4508 55.0529 57.4506 54.0941V49.7085" stroke="#222222" stroke-width="2" stroke-linecap="round" stroke-linejoin="round"/>
<path fill-rule="evenodd" clip-rule="evenodd" d="M45.1417 48.2209L50.9322 51.1133C52.1169 51.7043 53.5104 51.7043 54.6951 51.1133L60.48 48.2209C60.9554 47.9838 61.2559 47.4982 61.2559 46.9669C61.2559 46.4356 60.9554 45.95 60.48 45.713L54.6838 42.8205C53.4996 42.2278 52.1052 42.2278 50.921 42.8205L45.1361 45.713C44.6611 45.9511 44.3618 46.4374 44.3629 46.9687C44.3641 47.5 44.6657 47.9849 45.1417 48.2209Z" stroke="#222222" stroke-width="2" stroke-linecap="round" stroke-linejoin="round"/>
<path d="M61.249 46.9658V50.3422" stroke="#222222" stroke-width="2" stroke-linecap="round" stroke-linejoin="round"/>
<path d="M57.4975 38.6244V27.3697C57.4975 25.2978 55.8179 23.6182 53.7459 23.6182H31.2365C29.1646 23.6182 27.485 25.2978 27.485 27.3697V51.7549" stroke="#222222" stroke-width="2" stroke-linecap="round" stroke-linejoin="round"/>
<path d="M34.9881 23.6182V48.0033" stroke="#222222" stroke-width="2" stroke-linecap="round" stroke-linejoin="round"/>
<path d="M38.7397 48.0034H31.2365C29.1646 48.0034 27.485 49.683 27.485 51.755V51.755C27.485 53.8269 29.1646 55.5065 31.2365 55.5065H42.4912" stroke="#222222" stroke-width="2" stroke-linecap="round" stroke-linejoin="round"/>
</svg>
