<svg width="269" height="76" viewBox="0 0 269 76" fill="none" xmlns="http://www.w3.org/2000/svg">
<path d="M258.868 34.1855C254.939 32.5766 253.144 31.0309 253.144 28.7538C253.144 27.2014 254.646 25.3565 257.412 25.3565C260.071 25.3565 263.764 27.7831 264.153 28.0158C264.735 28.4047 265.463 28.0158 265.852 27.4341L267.694 24.6684C267.854 24.4137 267.913 24.108 267.859 23.8118C267.805 23.5156 267.641 23.2506 267.401 23.0694C266.434 22.3414 262.651 19.8184 257.701 19.8184C249.992 19.8184 246.791 24.8046 246.791 29.1261C246.791 34.8504 251.348 37.769 255.909 39.6039C259.981 41.266 262.069 42.9514 262.069 45.4246C262.069 47.5089 260.178 49.1577 257.654 49.1577C254.5 49.1577 250.574 46.2955 250.341 46.1659C250.214 46.0678 250.067 45.998 249.911 45.9614C249.754 45.9248 249.592 45.9222 249.435 45.9537C249.277 45.9852 249.128 46.0501 248.998 46.1441C248.867 46.238 248.759 46.3588 248.679 46.4983L246.931 49.4901C246.495 50.268 246.738 50.5106 247.173 50.9461C248.144 51.8669 251.734 54.729 257.844 54.729C264.682 54.729 269 50.1217 269 45.1254C269.003 38.8926 263.572 36.077 258.868 34.1855Z" fill="white"/>
<path d="M238.005 20.3145H232.587V53.3436C232.594 53.5855 232.694 53.8153 232.865 53.9864C233.036 54.1575 233.266 54.2569 233.508 54.2644H238.939V21.2353C238.932 20.9912 238.831 20.7594 238.657 20.588C238.483 20.4165 238.25 20.3186 238.005 20.3145Z" fill="white"/>
<path d="M217.728 40.5547C221.946 38.8593 224.905 35.236 224.905 30.7583C224.885 27.974 223.76 25.3117 221.778 23.3564C219.796 21.401 217.118 20.3126 214.334 20.3303H199.535V53.3595C199.535 53.4807 199.559 53.6007 199.605 53.7126C199.652 53.8245 199.72 53.9262 199.806 54.0117C199.891 54.0973 199.993 54.165 200.105 54.2111C200.217 54.2572 200.338 54.2807 200.459 54.2803H205.841V40.9835H211.226L217.675 53.8348C217.75 53.9738 217.863 54.0886 218 54.1657C218.138 54.2428 218.295 54.2791 218.453 54.2703H225.118L217.728 40.5547ZM213.799 35.8011H205.891V26.1609H213.795C216.365 26.1609 218.596 28.2951 218.596 30.8647C218.596 33.5539 216.365 35.7845 213.795 35.7845L213.799 35.8011Z" fill="white"/>
<path d="M156.091 20.3631C156.03 20.1969 155.917 20.055 155.768 19.9586C155.619 19.8621 155.444 19.8163 155.267 19.828H154.782C154.606 19.8238 154.434 19.8727 154.287 19.9681C154.14 20.0636 154.025 20.2013 153.957 20.3631L138.3 54.2699H143.931C144.238 54.2766 144.538 54.1868 144.791 54.0132C145.043 53.8396 145.234 53.591 145.337 53.3026L147.714 48.0636H162.214L164.591 53.3026C164.924 53.9674 165.256 54.2699 165.997 54.2699H171.619L156.091 20.3631ZM150.078 42.6718L154.831 32.0011H154.978L159.828 42.6718H150.078Z" fill="white"/>
<path d="M192.371 20.3145H170.255V25.2143C170.255 25.3365 170.279 25.4575 170.326 25.5703C170.373 25.6831 170.442 25.7854 170.529 25.8712C170.616 25.9569 170.719 26.0245 170.832 26.0698C170.946 26.1151 171.067 26.1373 171.189 26.1351H178.609V53.3436C178.617 53.5858 178.717 53.8156 178.889 53.9867C179.061 54.1577 179.291 54.257 179.533 54.2644H184.951V26.1351H193.292V21.2353C193.292 20.991 193.195 20.7568 193.022 20.5841C192.849 20.4115 192.615 20.3145 192.371 20.3145Z" fill="white"/>
<path d="M132.579 20.3145H127.147V53.3436C127.154 53.5855 127.254 53.8153 127.425 53.9864C127.596 54.1575 127.826 54.2569 128.068 54.2644H133.499V21.2353C133.492 20.9934 133.393 20.7635 133.221 20.5925C133.05 20.4214 132.82 20.322 132.579 20.3145Z" fill="white"/>
<path d="M114.758 20.1485C114.583 20.1474 114.412 20.1976 114.265 20.2927C114.119 20.3878 114.003 20.5237 113.933 20.6837L104.625 41.5397H104.293L94.9852 20.6837C94.9158 20.5232 94.8006 20.3868 94.6539 20.2916C94.5072 20.1963 94.3357 20.1466 94.1608 20.1485H87.7983L103.362 54.0552C103.429 54.2176 103.544 54.3558 103.691 54.4514C103.838 54.5471 104.011 54.5955 104.187 54.5904H104.672C104.847 54.5946 105.02 54.5457 105.167 54.4503C105.314 54.3548 105.429 54.2171 105.496 54.0552L121.12 20.1485H114.758Z" fill="white"/>
<path d="M52.3729 53.0099C26.5871 73.0448 1.0108 38.6195 4.89013 19.3492C4.89443 19.3271 4.89087 19.3042 4.88007 19.2845C4.86928 19.2648 4.85192 19.2494 4.83102 19.2412C4.81011 19.2329 4.78696 19.2322 4.76559 19.2391C4.74421 19.2461 4.72594 19.2603 4.71395 19.2794C-0.00436314 27.7836 -1.23813 37.7871 1.27251 47.183C3.78315 56.5788 9.84223 64.6336 18.1736 69.6508C18.6655 69.9403 19.196 70.1586 19.7493 70.2991C24.6458 71.539 41.0939 73.5867 52.5125 53.1296C52.5241 53.1107 52.5287 53.0883 52.5252 53.0664C52.5218 53.0445 52.5107 53.0245 52.4938 53.0101C52.477 52.9957 52.4556 52.9877 52.4334 52.9877C52.4112 52.9877 52.3898 52.9956 52.3729 53.0099Z" fill="white"/>
<path d="M43.4933 16.873C73.7435 29.1957 56.7103 68.5508 38.0815 74.8236C38.0608 74.8317 38.0435 74.8468 38.0326 74.8663C38.0217 74.8857 38.0178 74.9084 38.0218 74.9303C38.0257 74.9523 38.0371 74.9722 38.0541 74.9867C38.071 75.0012 38.0925 75.0093 38.1148 75.0097C47.8403 74.8468 57.1227 70.9147 64.0059 64.042C70.8891 57.1694 74.8355 47.893 75.0133 38.1677C75.0185 37.5978 74.9413 37.0301 74.7839 36.4824C73.411 31.6224 66.9621 16.3511 43.5365 16.6901C43.5147 16.69 43.4935 16.6973 43.4764 16.7108C43.4593 16.7242 43.4472 16.7431 43.4422 16.7644C43.4372 16.7856 43.4395 16.8079 43.4488 16.8276C43.4581 16.8473 43.4738 16.8633 43.4933 16.873Z" fill="white"/>
<path d="M16.6374 42.6256C12.183 10.2679 54.7791 5.34149 69.5286 18.3358C69.5445 18.3547 69.5672 18.3666 69.5918 18.3688C69.6165 18.3709 69.6409 18.3633 69.6599 18.3474C69.6788 18.3315 69.6907 18.3088 69.6929 18.2841C69.6951 18.2595 69.6874 18.235 69.6715 18.2161C64.6665 9.87825 56.6207 3.80847 47.229 1.28537C37.8373 -1.23772 27.8329 -0.0171596 19.3233 4.68995C18.832 4.9705 18.3841 5.32099 17.9936 5.73042C14.4534 9.35046 4.45422 22.5708 16.4612 42.6888C16.4731 42.7067 16.4907 42.7201 16.5112 42.7269C16.5316 42.7337 16.5537 42.7334 16.574 42.7262C16.5943 42.7189 16.6115 42.705 16.623 42.6868C16.6345 42.6686 16.6396 42.647 16.6374 42.6256Z" fill="white"/>
<path d="M53.2212 30.1628C53.1913 30.0963 53.1547 30.0332 53.1248 29.9667C52.9087 29.5213 52.6794 29.0858 52.4267 28.6636C52.3835 28.5872 52.337 28.514 52.2904 28.4409C50.7401 25.909 48.5658 23.8175 45.9758 22.3664C43.3857 20.9153 40.4666 20.1533 37.4978 20.1533C34.5289 20.1533 31.6098 20.9153 29.0198 22.3664C26.4297 23.8175 24.2555 25.909 22.7051 28.4409L22.5655 28.6636C22.3162 29.0858 22.0868 29.5213 21.8707 29.9667C21.8408 30.0332 21.8043 30.0963 21.7743 30.1628C20.7212 32.4224 20.1669 34.8822 20.1491 37.3751C20.1313 39.8679 20.6505 42.3354 21.6713 44.6098C21.7045 44.6862 21.7378 44.766 21.7743 44.8425C21.9804 45.2846 22.2065 45.7134 22.4392 46.1356L22.5555 46.345C24.0912 48.9371 26.2754 51.0847 28.893 52.5764C31.5107 54.0681 34.4716 54.8526 37.4845 54.8526C40.4973 54.8526 43.4583 54.0681 46.0759 52.5764C48.6936 51.0847 50.8777 48.9371 52.4134 46.345C52.4566 46.2752 52.4932 46.2054 52.5331 46.1356C52.7724 45.7134 53.0018 45.2846 53.1979 44.8425C53.2345 44.766 53.2644 44.6862 53.301 44.6098C54.3218 42.3354 54.8409 39.8679 54.8232 37.3751C54.8054 34.8822 54.2511 32.4224 53.1979 30.1628H53.2212ZM51.5358 30.1628C52.5676 32.1349 53.1693 34.3035 53.301 36.5253H46.503C46.4474 34.3816 46.17 32.2494 45.6753 30.1628L45.6254 29.9667H51.4261C51.4627 30.0332 51.5192 30.0963 51.5358 30.1628ZM44.9772 38.2506C44.9436 40.3915 44.6851 42.5229 44.206 44.6098H38.249V38.2539V38.0545H44.9805C44.9805 38.1176 44.9805 38.1841 44.9772 38.2506ZM30.8062 44.6098C30.3226 42.5234 30.0596 40.3919 30.0217 38.2506C30.0217 38.1841 30.0217 38.1176 30.0217 38.0511H36.7532V38.2506V44.6098H30.8062ZM30.8594 30.1628L30.9092 29.9667H36.7498V36.5253H30.0283C30.0802 34.3811 30.3588 32.2484 30.8594 30.1628ZM44.0863 29.9667C44.1029 30.0332 44.1229 30.0963 44.1395 30.1628C44.6385 32.2487 44.917 34.3813 44.9706 36.5253H38.249V29.9667H44.0863ZM50.4854 28.4409H45.2033C44.4088 25.9511 43.2985 23.8735 41.9755 22.4241C41.9658 22.4138 41.9598 22.4006 41.9585 22.3866C41.9572 22.3725 41.9607 22.3584 41.9684 22.3466C41.976 22.3347 41.9874 22.3257 42.0008 22.3211C42.0141 22.3165 42.0286 22.3165 42.0419 22.3211C45.4652 23.3521 48.4403 25.5085 50.4854 28.4409ZM38.3488 21.7327C40.5494 22.2712 42.4442 24.7909 43.6442 28.4409H38.249V21.8125C38.2486 21.8001 38.2511 21.7878 38.2563 21.7765C38.2615 21.7652 38.2693 21.7554 38.2789 21.7476C38.2886 21.7399 38.3 21.7345 38.3121 21.7319C38.3242 21.7293 38.3368 21.7296 38.3488 21.7327ZM36.7498 21.8125V28.4409H31.3547C32.5547 24.7843 34.4595 22.2579 36.6501 21.7327C36.6621 21.7296 36.6747 21.7293 36.6868 21.7319C36.6989 21.7345 36.7103 21.7399 36.7199 21.7476C36.7296 21.7554 36.7374 21.7652 36.7425 21.7765C36.7477 21.7878 36.7502 21.8001 36.7498 21.8125ZM33.0367 22.4241C31.707 23.8735 30.6067 25.9511 29.8089 28.4409H24.5135C26.5621 25.5047 29.5437 23.3479 32.9736 22.3211C32.9867 22.3176 33.0005 22.3185 33.0131 22.3236C33.0256 22.3287 33.0363 22.3376 33.0433 22.3492C33.0504 22.3607 33.0536 22.3742 33.0524 22.3877C33.0512 22.4012 33.0457 22.414 33.0367 22.4241ZM23.4597 30.1628L23.5727 29.9667H29.3735L29.3236 30.1628C28.8256 32.2488 28.5481 34.3814 28.4959 36.5253H21.6946C21.8279 34.3038 22.4294 32.1355 23.4597 30.1628ZM21.6779 38.2506C21.6779 38.1841 21.6779 38.1176 21.6779 38.0511H28.4859V38.2506C28.5264 40.3918 28.7893 42.5229 29.2704 44.6098H23.3467C22.349 42.6311 21.7804 40.4641 21.6779 38.2506ZM24.221 46.1389H29.676L29.7358 46.3483C30.5369 48.9379 31.6771 51.0953 33.04 52.5878C33.0497 52.5981 33.0557 52.6113 33.057 52.6254C33.0583 52.6394 33.0548 52.6535 33.0471 52.6654C33.0395 52.6772 33.0281 52.6862 33.0147 52.6908C33.0014 52.6954 32.9869 52.6955 32.9736 52.6909C29.3724 51.6118 26.271 49.2901 24.221 46.1389ZM36.7498 46.345V53.1862C36.7496 53.1984 36.7467 53.2103 36.7413 53.2213C36.7359 53.2322 36.7282 53.2418 36.7187 53.2494C36.7091 53.257 36.6981 53.2625 36.6862 53.2653C36.6744 53.2682 36.662 53.2684 36.6501 53.266C34.373 52.7208 32.4051 50.0083 31.2151 46.1289H36.7498V46.345ZM38.3488 53.2759C38.3368 53.2784 38.3245 53.2782 38.3127 53.2753C38.3008 53.2724 38.2897 53.267 38.2802 53.2594C38.2707 53.2518 38.263 53.2422 38.2576 53.2312C38.2522 53.2203 38.2493 53.2083 38.249 53.1961V46.1356H43.7838C42.5938 50.0182 40.6258 52.7308 38.3488 53.2759ZM50.7779 46.1389C48.7269 49.2899 45.6241 51.6105 42.022 52.6875C42.0089 52.691 41.995 52.6901 41.9825 52.685C41.9699 52.68 41.9593 52.671 41.9522 52.6594C41.9451 52.6479 41.942 52.6344 41.9432 52.6209C41.9444 52.6074 41.9499 52.5946 41.9588 52.5845C43.3218 51.0919 44.462 48.9279 45.2631 46.345L45.3229 46.1356H50.7779V46.1389ZM53.3209 38.2506C53.2206 40.4637 52.6542 42.6306 51.6588 44.6098H45.7285C46.2078 42.5226 46.4707 40.3916 46.513 38.2506V38.0511H53.3243C53.3209 38.1176 53.3243 38.1841 53.3209 38.2506Z" fill="white"/>
</svg>
