<svg width="54" height="47" viewBox="0 0 54 47" fill="none" xmlns="http://www.w3.org/2000/svg">
<circle cx="22.633" cy="24.1328" r="22.5" fill="#008ED5"/>
<path d="M26.7145 14.401H30.633L33.6868 12.5403C34.1746 12.2431 34.7713 12.1844 35.3077 12.3808C35.8441 12.5773 36.2618 13.0075 36.4423 13.5494L40.7622 26.5092L46.8397 34.6126C47.6071 35.6357 47.7305 37.0045 47.1586 38.1484C46.5866 39.2923 45.4175 40.0148 44.1386 40.0148H36.7668C34.6822 40.0161 32.6913 39.1488 31.2726 37.6213L15.2516 20.3773C14.2111 19.2551 13.6726 17.7576 13.76 16.2298C13.8474 14.702 14.5533 13.2757 15.7149 12.2795L22.1357 6.77787C22.7804 6.22565 23.6874 6.09913 24.4586 6.45387C25.2298 6.80861 25.7239 7.57972 25.7241 8.42856V14.401H30.633" stroke="#323232" stroke-width="2" stroke-linecap="round" stroke-linejoin="round"/>
<path d="M13.751 33.4496H17.5025" stroke="#323232" stroke-width="2" stroke-linecap="round" stroke-linejoin="round"/>
<path d="M23.1299 40.015H13.751" stroke="#323232" stroke-width="2" stroke-linecap="round" stroke-linejoin="round"/>
<path d="M46.6653 34.3876H37.2414C35.6799 34.3918 34.1877 33.743 33.1259 32.598L14.9796 13.0562" stroke="#323232" stroke-width="2" stroke-linecap="round" stroke-linejoin="round"/>
<path d="M32.5088 25.0089L39.8337 23.7409" stroke="#323232" stroke-width="2" stroke-linecap="round" stroke-linejoin="round"/>
<path d="M30.633 20.3194L38.2562 19.0007" stroke="#323232" stroke-width="2" stroke-linecap="round" stroke-linejoin="round"/>
</svg>
